#!OML:ASF F:\VICON\USERDATA\INSTALL\rory3\rory3.ASF
:FULLY-SPECIFIED
:DEGREES
465
root 0.423013 16.4387 -14.0449 27.7452 -10.7989 -3.75203
lowerback -17.2047 1.40975 -4.98127
upperback -11.901 2.45596 1.18003
thorax -3.4415 1.58117 4.38996
lowerneck -10.6439 -0.512295 1.2391
upperneck 34.2367 -2.64751 4.34455
head 13.3365 -0.458739 1.11256
rclavicle -4.22914e-014 -3.37934e-015
rhumerus -56.8402 12.5821 -93.2198
rradius 17.9771
rwrist -7.41658
rhand 27.5917 4.70035
rfingers 7.12502
rthumb 51.5293 -15.6808
lclavicle -4.22914e-014 -3.37934e-015
lhumerus -50.9955 -19.5828 96.5211
lradius 33.6292
lwrist 1.77876
lhand 21.3243 18.1665
lfingers 7.12502
lthumb 45.7667 41.3576
rfemur -18.6349 0.621127 32.0285
rtibia 41.9028
rfoot 18.1637 -25.4454
rtoes 25.1145
lfemur -50.2088 7.08692 -32.9995
ltibia 39.6412
lfoot -50.0271 27.6436
ltoes 24.5782
466
root 0.421522 16.4412 -14.0474 27.7772 -10.8763 -3.76955
lowerback -17.0784 1.29954 -5.08962
upperback -11.7068 2.3237 1.34826
thorax -3.2928 1.51875 4.61342
lowerneck -11.7417 -0.398216 1.25034
upperneck 34.5154 -2.46863 4.15234
head 13.6935 -0.38447 1.06443
rclavicle -6.95746e-016 -8.15017e-015
rhumerus -56.5145 13.4134 -93.6035
rradius 18.0721
rwrist -7.55337
rhand 27.5871 5.04899
rfingers 7.12502
rthumb 51.5251 -15.3345
lclavicle -6.95746e-016 -8.15017e-015
lhumerus -50.6288 -19.8163 96.9069
lradius 33.6309
lwrist 2.11731
lhand 21.0809 18.2786
lfingers 7.12502
lthumb 45.5406 41.562
rfemur -18.6713 0.699011 32.0477
rtibia 41.8753
rfoot 17.9044 -25.7594
rtoes 25.389
lfemur -50.2353 7.15219 -33.0103
ltibia 39.5894
lfoot -50.0685 27.7223
ltoes 24.185
467
root 0.418018 16.4426 -14.0502 27.8154 -10.9698 -3.74005
lowerback -17.2224 1.33241 -5.15335
upperback -11.6671 2.38251 1.29903
thorax -3.18296 1.54634 4.61096
lowerneck -11.5348 -0.430083 1.2628
upperneck 34.3176 -2.52653 4.22478
head 13.5627 -0.404893 1.07912
rclavicle 1.4238e-014 3.37934e-015
rhumerus -56.6833 13.5351 -93.9302
rradius 18.3909
rwrist -7.48711
rhand 27.587 4.9689
rfingers 7.12502
rthumb 51.525 -15.4147
lclavicle 1.4238e-014 3.37934e-015
lhumerus -50.7952 -20.6326 97.5415
lradius 33.6894
lwrist 2.62005
lhand 20.7434 18.2886
lfingers 7.12502
lthumb 45.227 41.6982
rfemur -18.7076 0.8466 32.0121
rtibia 41.8111
rfoot 17.8208 -25.9248
rtoes 25.2213
lfemur -50.2971 7.19675 -33.0601
ltibia 39.5679
lfoot -49.9375 27.7777
ltoes 24.4651
468
root 0.41782 16.4449 -14.0543 27.8828 -10.9726 -3.89889
lowerback -17.3567 1.32496 -5.00055
upperback -11.4769 2.36244 1.39056
thorax -2.89669 1.51811 4.62929
lowerneck -11.9456 -0.380701 1.18436
upperneck 34.2724 -2.46457 4.28496
head 13.634 -0.375399 1.12532
rclavicle -6.4195e-014 -1.78906e-014
rhumerus -56.6326 14.2727 -94.5816
rradius 18.8045
rwrist -7.94793
rhand 27.7618 4.18082
rfingers 7.12502
rthumb 51.6839 -16.1107
lclavicle -6.4195e-014 -1.78906e-014
lhumerus -50.566 -21.2026 98.0023
lradius 33.7816
lwrist 3.0583
lhand 20.8703 18.5887
lfingers 7.12502
lthumb 45.345 41.9511
rfemur -18.6775 0.932461 32.1748
rtibia 41.7092
rfoot 17.4039 -25.9441
rtoes 25.1378
lfemur -50.3547 7.18077 -32.8658
ltibia 39.579
lfoot -50.0619 27.5502
ltoes 25.0905
469
root 0.417109 16.4499 -14.0605 28.0009 -11.057 -4.01991
lowerback -17.3895 1.38997 -4.88456
upperback -11.6172 2.43021 1.38276
thorax -3.03492 1.55225 4.56255
lowerneck -11.436 -0.366746 1.18921
upperneck 34.1191 -2.46101 4.4032
head 13.456 -0.367404 1.16903
rclavicle 1.49337e-014 3.18055e-014
rhumerus -57.1831 14.7105 -95.3703
rradius 19.1768
rwrist -8.37789
rhand 27.9686 3.39599
rfingers 7.12502
rthumb 51.8717 -16.7856
lclavicle 1.49337e-014 3.18055e-014
lhumerus -51.1146 -22.0706 98.7939
lradius 34.0332
lwrist 3.46389
lhand 21.0984 18.851
lfingers 7.12502
lthumb 45.5569 42.1277
rfemur -18.7155 1.10403 32.2627
rtibia 41.583
rfoot 17.258 -26.0332
rtoes 25.4536
lfemur -50.5003 7.20824 -32.7513
ltibia 39.6059
lfoot -50.1801 27.5753
ltoes 25.0161
470
root 0.420521 16.4554 -14.0589 28.0724 -11.1332 -4.16574
lowerback -17.2871 1.39513 -4.73895
upperback -11.6871 2.411 1.47282
thorax -3.15871 1.54196 4.56823
lowerneck -11.4057 -0.283099 1.25456
upperneck 34.1043 -2.32529 4.32158
head 13.4373 -0.311247 1.14448
rclavicle -2.31708e-014 -2.62396e-014
rhumerus -57.518 15.3928 -96.0713
rradius 19.4024
rwrist -8.60503
rhand 27.7478 3.87658
rfingers 7.12502
rthumb 51.6712 -16.4224
lclavicle -2.31708e-014 -2.62396e-014
lhumerus -51.6279 -22.925 99.7315
lradius 34.388
lwrist 4.16492
lhand 20.8321 18.9923
lfingers 7.12502
lthumb 45.3094 42.369
rfemur -18.6521 1.08122 32.3328
rtibia 41.4555
rfoot 17.3817 -26.0276
rtoes 25.8554
lfemur -50.5773 7.27114 -32.6349
ltibia 39.6234
lfoot -50.1628 27.8975
ltoes 24.2749
471
root 0.425905 16.4569 -14.056 28.1168 -11.0891 -4.33425
lowerback -17.2007 1.37872 -4.50402
upperback -11.7006 2.35424 1.56637
thorax -3.20213 1.50391 4.52413
lowerneck -11.4115 -0.219632 1.32184
upperneck 34.0539 -2.2164 4.23068
head 13.4116 -0.268094 1.11131
rclavicle -3.13086e-015 -1.90833e-014
rhumerus -57.8188 16.0367 -96.7296
rradius 19.69
rwrist -8.91786
rhand 27.2392 5.2877
rfingers 7.12502
rthumb 51.2086 -15.2765
lclavicle -3.13086e-015 -1.90833e-014
lhumerus -52.2275 -24.0843 100.931
lradius 34.8
lwrist 5.2
lhand 20.5046 19.0078
lfingers 7.12502
lthumb 45.0049 42.5055
rfemur -18.5267 0.960014 32.4676
rtibia 41.3379
rfoot 17.1739 -25.8696
rtoes 26.0809
lfemur -50.5804 7.25345 -32.4499
ltibia 39.6113
lfoot -50.3102 27.9468
ltoes 23.9846
472
root 0.42671 16.4582 -14.0551 28.1102 -11.1266 -4.25735
lowerback -17.2221 1.32396 -4.57127
upperback -11.6241 2.29265 1.59005
thorax -3.10489 1.47313 4.58182
lowerneck -11.3968 -0.1883 1.30045
upperneck 33.9363 -2.15849 4.2302
head 13.3555 -0.248216 1.12099
rclavicle -4.50993e-015 1.19271e-015
rhumerus -58.1564 16.7763 -97.4782
rradius 20.2551
rwrist -9.54203
rhand 27.7133 4.11199
rfingers 7.12502
rthumb 51.6398 -16.2052
lclavicle -4.50993e-015 1.19271e-015
lhumerus -52.6717 -25.2882 102.096
lradius 35.0512
lwrist 5.92764
lhand 20.6912 18.8648
lfingers 7.12502
lthumb 45.1784 42.2937
rfemur -18.479 0.960729 32.374
rtibia 41.2397
rfoot 17.5455 -25.722
rtoes 25.4459
lfemur -50.536 7.29459 -32.567
ltibia 39.5523
lfoot -50.467 27.7651
ltoes 24.0402
473
root 0.425981 16.4598 -14.0574 28.0916 -11.2163 -4.16783
lowerback -17.269 1.27515 -4.70928
upperback -11.485 2.25061 1.60292
thorax -2.93144 1.45245 4.6728
lowerneck -11.624 -0.145033 1.35534
upperneck 33.902 -2.10402 4.19676
head 13.3884 -0.219615 1.10564
rclavicle 4.75965e-014 1.05356e-014
rhumerus -58.2478 17.434 -98.0946
rradius 20.587
rwrist -10.0154
rhand 28.0319 3.32422
rfingers 7.12502
rthumb 51.9291 -16.8234
lclavicle 4.75965e-014 1.05356e-014
lhumerus -52.8785 -26.2783 102.911
lradius 35.3071
lwrist 6.12567
lhand 21.2563 18.831
lfingers 7.12502
lthumb 45.7036 42.0479
rfemur -18.4269 1.183 32.2659
rtibia 41.1362
rfoot 17.738 -25.7497
rtoes 25.1311
lfemur -50.5033 7.3117 -32.6724
ltibia 39.4858
lfoot -50.3574 27.7029
ltoes 24.8259
474
root 0.428517 16.4631 -14.0593 28.0768 -11.1966 -4.12863
lowerback -17.3014 1.2244 -4.69146
upperback -11.3759 2.18428 1.60903
thorax -2.78581 1.41135 4.66369
lowerneck -11.8378 -0.0693618 1.43507
upperneck 33.8964 -2.01921 4.19197
head 13.4309 -0.170437 1.10236
rclavicle 4.1223e-014 1.53064e-014
rhumerus -58.4219 18.1788 -98.9112
rradius 20.8364
rwrist -10.4721
rhand 28.1243 2.60953
rfingers 7.12502
rthumb 52.013 -17.4884
lclavicle 4.1223e-014 1.53064e-014
lhumerus -53.3437 -27.7594 104.142
lradius 35.7577
lwrist 6.89473
lhand 21.5573 19.1401
lfingers 7.12502
lthumb 45.983 42.2418
rfemur -18.3835 1.12991 32.2243
rtibia 41.0674
rfoot 17.5522 -25.4941
rtoes 24.3494
lfemur -50.42 7.26004 -32.6995
ltibia 39.382
lfoot -50.194 27.5689
ltoes 25.5303
475
root 0.431852 16.4675 -14.0593 28.0886 -11.1631 -4.18341
lowerback -17.3308 1.19596 -4.57195
upperback -11.3059 2.13254 1.63268
thorax -2.68185 1.37461 4.61658
lowerneck -11.962 0.0206343 1.55446
upperneck 33.8512 -1.9132 4.17085
head 13.4356 -0.11087 1.08796
rclavicle 4.17075e-014 3.18055e-014
rhumerus -58.737 18.9569 -99.8107
rradius 21.2565
rwrist -11.0163
rhand 27.9772 2.37494
rfingers 7.12502
rthumb 51.8795 -17.802
lclavicle 4.17075e-014 3.18055e-014
lhumerus -54.0764 -29.5404 105.726
lradius 36.2274
lwrist 8.18862
lhand 21.2216 19.3494
lfingers 7.12502
lthumb 45.6713 42.5795
rfemur -18.3612 1.03698 32.2731
rtibia 41.0097
rfoot 17.4488 -25.3258
rtoes 23.8892
lfemur -50.3497 7.18183 -32.6041
ltibia 39.2876
lfoot -50.2299 27.5764
ltoes 25.5833
476
root 0.43214 16.4708 -14.0676 28.1443 -11.2988 -4.147
lowerback -17.2578 1.20222 -4.62158
upperback -11.3283 2.14349 1.59548
thorax -2.74619 1.3834 4.6034
lowerneck -11.9594 0.0606805 1.63909
upperneck 33.7753 -1.87792 4.18424
head 13.4014 -0.0844821 1.08207
rclavicle 3.32343e-014 1.90833e-014
rhumerus -59.0905 19.5318 -100.601
rradius 21.7241
rwrist -11.4286
rhand 27.7194 2.51549
rfingers 7.12502
rthumb 51.6454 -17.7984
lclavicle 3.32343e-014 1.90833e-014
lhumerus -54.8773 -31.0481 107.101
lradius 36.7507
lwrist 9.16274
lhand 21.0612 19.6366
lfingers 7.12502
lthumb 45.5224 42.9274
rfemur -18.4383 1.2397 32.1974
rtibia 40.973
rfoot 17.4321 -25.4149
rtoes 23.7844
lfemur -50.4237 7.1691 -32.6494
ltibia 39.1962
lfoot -50.0492 27.9581
ltoes 25.109
477
root 0.431838 16.4731 -14.0756 28.2342 -11.4479 -4.1934
lowerback -17.199 1.21012 -4.62152
upperback -11.3688 2.14978 1.6043
thorax -2.82234 1.38941 4.61072
lowerneck -11.8277 0.0912068 1.66242
upperneck 33.6327 -1.84015 4.22009
head 13.3102 -0.0649622 1.09446
rclavicle -9.31803e-016 9.74045e-015
rhumerus -59.4871 20.0834 -101.293
rradius 22.1104
rwrist -11.7973
rhand 27.7169 2.36068
rfingers 7.12502
rthumb 51.6431 -17.9546
lclavicle -9.31803e-016 9.74045e-015
lhumerus -55.6726 -32.3276 108.312
lradius 37.2811
lwrist 9.84184
lhand 21.3517 19.6327
lfingers 7.12502
lthumb 45.7921 42.8133
rfemur -18.5137 1.52346 32.1909
rtibia 40.9142
rfoot 17.4298 -25.4511
rtoes 23.5118
lfemur -50.5397 7.18188 -32.6119
ltibia 39.1385
lfoot -50.1058 28.2191
ltoes 24.599
478
root 0.434375 16.4764 -14.0739 28.3116 -11.5422 -4.25074
lowerback -17.2436 1.20351 -4.53917
upperback -11.407 2.12976 1.63167
thorax -2.83577 1.3762 4.59148
lowerneck -11.5809 0.154656 1.66374
upperneck 33.5123 -1.75215 4.27778
head 13.2031 -0.0243666 1.1265
rclavicle 1.54182e-014 -5.96354e-015
rhumerus -60.0351 20.675 -102.069
rradius 22.5643
rwrist -12.1553
rhand 27.8252 1.91647
rfingers 7.12502
rthumb 51.7415 -18.3415
lclavicle 1.54182e-014 -5.96354e-015
lhumerus -56.6242 -33.4168 109.518
lradius 37.9672
lwrist 10.2891
lhand 21.6998 19.8113
lfingers 7.12502
lthumb 46.1151 42.8577
rfemur -18.5087 1.57325 32.1838
rtibia 40.8082
rfoot 17.4913 -25.2633
rtoes 23.0646
lfemur -50.5885 7.19364 -32.5738
ltibia 39.1199
lfoot -50.4132 28.1014
ltoes 24.6642
479
root 0.436849 16.481 -14.0692 28.4038 -11.5974 -4.37032
lowerback -17.3591 1.20289 -4.39731
upperback -11.411 2.11287 1.69116
thorax -2.77373 1.35978 4.57642
lowerneck -11.375 0.184964 1.70213
upperneck 33.4084 -1.68321 4.21145
head 13.1108 -0.00280543 1.10072
rclavicle -7.77745e-015 2.46493e-014
rhumerus -60.4684 21.2147 -102.722
rradius 23.0141
rwrist -12.3854
rhand 27.8206 1.73264
rfingers 7.12502
rthumb 51.7373 -18.5277
lclavicle -7.77745e-015 2.46493e-014
lhumerus -57.5227 -34.6041 110.937
lradius 38.3534
lwrist 11.0452
lhand 21.6409 19.9481
lfingers 7.12502
lthumb 46.0605 43.0174
rfemur -18.4448 1.53894 32.2459
rtibia 40.6371
rfoot 17.5886 -25.1903
rtoes 23.1548
lfemur -50.6567 7.30033 -32.5156
ltibia 39.1609
lfoot -50.5179 27.7722
ltoes 25.3213
